<?xml version="1.0" encoding="UTF-8"?>
<svg id="Layer_2" data-name="Layer 2" xmlns="http://www.w3.org/2000/svg" viewBox="0 0 283.46 99.58">
  <defs>
    <style>
      .cls-1 {
        fill: #fff;
        fill-rule: evenodd;
        stroke-width: 0px;
      }
    </style>
  </defs>
  <g id="Layer_1-2" data-name="Layer 1">
    <g>
      <path class="cls-1" d="M20.59,34.43h31.31v10.08h-20.16v24.02h-11.15v-24.02H0v-10.08h20.59ZM65.62,34.43h11.15l24.45,34.09h-11.15l-5.64-7.93h-26.25l-5.64,7.93h-11.15l24.24-34.09h0ZM78.79,52.66l-5.77-8.15h-3.35l-5.85,8.15h14.97ZM105.58,34.43h43.78v10.08h-32.84v3.69h30.29v8.4h-30.29v11.92h-10.95v-34.09h0ZM154.18,34.43h43.59v10.08h-32.47v3.01h29.73v7.93h-29.73v2.93h32.47v10.14h-43.59v-34.09h0Z"/>
      <path class="cls-1" d="M257.85,17.18c.13-2.33,1.35-4.21,3.07-5.22l18.11-10.65c.46-.27,1.21-1.04,1.97-1.22,1.23-.29,2.47.19,2.47,1.1v16.27c0,.71-.12,1.61-.71,2.01l-13.25,8.99c-1.02.69-1.18,2.23-2.13,3.02-.25.21-.59-.45-.59-.77v-7.51l10.24-6.86c.48-.32.83-.96.83-1.54v-6.45c0-.84-.71.32-1.42,2.07l-9.64,5.56c-1.47.85-2.13,3.4-2.11,4.5v17.58s16.63-9.32,16.63-9.32c.76-.43,2.16-.49,2.16,1.48v16.64c0,1.27-.66,2.73-1.74,3.39l-17.06,10.48v8.7s17.51-10.54,17.51-10.54c.34-1.5,1.29-3.08,1.29-2.22v8.19l-18.8,11.73v23h-6.82l-.03-12.68c-7.79-4.96-15.58-9.92-23.37-14.88-1.63-1.04-3.29-2.83-3.29-4.76V19.3c0-.33.56-.34.65-.03.31,1.05.71,1.76,1.33,2.24l3.88,2.98v9.21l7.91,4.65.93-.16v5.58l-8.84-4.65v23.04c0,2.43.98,4.78,3.54,6.36l17.29,10.67v-3.08l-15.71-9.63c-1.41-.86-2.71-2.46-2.71-4.11v-16.74c0-1.25,1.84-2.22,3.6-1.13l14.82,9.17-.05-9.17-18.37-11.66v-7.32c0-.48.66-.43.74-.23.27.73.29,1.56.89,1.94l16.8,10.54v-20.6h.01ZM264.67,44.5v9.14s10.81-6.14,10.81-6.14c1.11-.63,2.37-1.72,2.37-3v-4.63c0-1.81-.79-2.12-2.16-1.38l-11.02,6h0ZM257.84,60.39l-10.28-6.03c-.67-.4-1.71-.97-1.71,1.32v4.03c0,1.1.46,2.28,1.4,2.87l10.58,6.63v-8.81h.01Z"/>
    </g>
  </g>
</svg>